<?xml version="1.0" encoding="UTF-8"?>
<!-- Generated by jsxcad -->
<!DOCTYPE svg PUBLIC "-//W3C//DTD SVG 1.1 Tiny//EN" "http://www.w3.org/Graphics/SVG/1.1/DTD/svg11-tiny.dtd">
<svg viewBox="-250 -250 500 500" width="500" height="500" xmlns="http://www.w3.org/2000/svg"><path d="M179.70631968870447,-39.783029480527475L-184.32807910694646,-67.59275596836495L-116.96396318546874,36.12308862337832z" style="fill:rgb(127,37,217)"/><path d="M-133.06571374723399,143.40222645280397L177.67894199252248,-45.93497584821976L-120.41702586869451,30.806654353577994zM-160.1879791927432,106.99729675855262L-55.95051519413496,-29.87438453402385L-144.40476628133817,-6.125596250122402z" style="fill:rgb(83,212,212)"/><path d="M-54.47934865178788,-27.211883124905537L-55.95051519413496,-29.87438453402385L-62.219975766263644,83.43902810199558zM179.2266782562346,-42.45562212859922L139.86039925505855,-160.69230956237632L179.70631968870447,-39.783029480527475zM178.5828364993953,-43.1921555822347L177.67894199252248,-45.93497584821976L197.92096756573557,67.4408336379452z" style="fill:rgb(247,158,158)"/><path d="M179.70631968870447,-39.783029480527475L139.86039925505855,-160.69230956237632L-184.32807910694646,-67.59275596836495z" style="fill:rgb(127,37,217)"/><path d="M-184.32807910694646,-67.59275596836495L139.44549077203985,-163.30417204889133L-183.8234831581313,-70.25776246794118zM-133.06571374723399,143.40222645280397L197.92096756573557,67.4408336379452L177.67894199252248,-45.93497584821976zM-160.1879791927432,106.99729675855262L-62.219975766263644,83.43902810199558L-55.95051519413496,-29.87438453402385z" style="fill:rgb(83,212,212)"/><path d="M198.8706941495855,70.17680789900564L-133.06571374723399,143.40222645280397L-131.3324933178105,145.72863623651z" style="fill:rgb(127,37,217)"/><path d="M-54.47934865178788,-27.211883124905537L-62.219975766263644,83.43902810199558L-60.56709416317061,86.08599287136383zM179.2266782562346,-42.45562212859922L139.44549077203985,-163.30417204889133L139.86039925505855,-160.69230956237632zM178.5828364993953,-43.1921555822347L197.92096756573557,67.4408336379452L198.8706941495855,70.17680789900564z" style="fill:rgb(247,158,158)"/><path d="M-60.56709416317061,86.08599287136383L-160.1879791927432,106.99729675855262L-158.31159936556685,109.51586229163046z" style="fill:rgb(127,37,217)"/><path d="M-184.32807910694646,-67.59275596836495L139.86039925505855,-160.69230956237632L139.44549077203985,-163.30417204889133z" style="fill:rgb(83,212,212)"/><path d="M198.8706941495855,70.17680789900564L197.92096756573557,67.4408336379452L-133.06571374723399,143.40222645280397zM-60.56709416317061,86.08599287136383L-62.219975766263644,83.43902810199558L-160.1879791927432,106.99729675855262zM200.6481439193412,76.90598274897178L-206.42716693214766,49.12300433632408L-129.53454830312972,151.89836263238846z" style="fill:rgb(127,37,217)"/><path d="M200.05038535099249,73.57524275386851L158.2205131047715,-45.1149807443324L200.6481439193412,76.90598274897178z" style="fill:rgb(247,158,158)"/><path d="M200.6481439193412,76.90598274897178L158.2205131047715,-45.1149807443324L-206.42716693214766,49.12300433632408z" style="fill:rgb(127,37,217)"/><path d="M-206.42716693214766,49.12300433632408L157.6897266274079,-48.456288944272764L-205.7945346134937,45.781768928363654z" style="fill:rgb(83,212,212)"/><path d="M200.05038535099249,73.57524275386851L157.6897266274079,-48.456288944272764L158.2205131047715,-45.1149807443324z" style="fill:rgb(247,158,158)"/><path d="M-206.42716693214766,49.12300433632408L158.2205131047715,-45.1149807443324L157.6897266274079,-48.456288944272764z" style="fill:rgb(83,212,212)"/></svg>
